<svg width="148" height="41" viewBox="0 0 146 35" fill="none" xmlns="http://www.w3.org/2000/svg">
<path d="M9.51634 34.3409C7.75355 34.3409 6.24432 34.0954 4.98864 33.6044C3.73295 33.1134 2.74692 32.4413 2.03054 31.5881C1.31416 30.7348 0.883523 29.7689 0.738636 28.6903L6.32884 28.3764C6.43348 28.7547 6.62666 29.0848 6.90838 29.3665C7.19815 29.6482 7.57244 29.8655 8.03125 30.0185C8.49811 30.1714 9.04545 30.2479 9.6733 30.2479C10.6634 30.2479 11.4804 30.0064 12.1243 29.5234C12.7763 29.0485 13.1023 28.2154 13.1023 27.0241V23.7642H12.897C12.6636 24.3357 12.3094 24.8468 11.8345 25.2976C11.3596 25.7483 10.768 26.1025 10.0597 26.3601C9.35938 26.6177 8.55445 26.7464 7.64489 26.7464C6.29261 26.7464 5.05303 26.4325 3.92614 25.8047C2.80729 25.1688 1.9098 24.1868 1.23366 22.8587C0.565578 21.5225 0.231534 19.804 0.231534 17.7031C0.231534 15.5379 0.577652 13.755 1.26989 12.3544C1.96212 10.9458 2.86766 9.90341 3.98651 9.22727C5.1134 8.55114 6.32481 8.21307 7.62074 8.21307C8.5947 8.21307 9.42779 8.3821 10.12 8.72017C10.8203 9.05019 11.3958 9.4768 11.8466 10C12.2973 10.5232 12.6394 11.0665 12.8729 11.63H13.0419V8.45454H18.9219V27.0724C18.9219 28.642 18.5275 29.9661 17.7386 31.0447C16.9498 32.1233 15.8471 32.9403 14.4304 33.4957C13.0137 34.0592 11.3757 34.3409 9.51634 34.3409ZM9.69744 22.4482C10.4138 22.4482 11.0256 22.259 11.5327 21.8807C12.0398 21.5024 12.4302 20.959 12.7038 20.2507C12.9775 19.5424 13.1143 18.6932 13.1143 17.7031C13.1143 16.697 12.9775 15.8317 12.7038 15.1072C12.4382 14.3748 12.0478 13.8113 11.5327 13.4169C11.0256 13.0225 10.4138 12.8253 9.69744 12.8253C8.96496 12.8253 8.34517 13.0265 7.83807 13.429C7.33097 13.8314 6.9446 14.3989 6.67898 15.1314C6.4214 15.8558 6.29261 16.7131 6.29261 17.7031C6.29261 18.6932 6.42543 19.5424 6.69105 20.2507C6.95668 20.959 7.33902 21.5024 7.83807 21.8807C8.34517 22.259 8.96496 22.4482 9.69744 22.4482ZM30.6749 27.3501C28.7351 27.3501 27.0608 26.9678 25.6522 26.2031C24.2516 25.4304 23.173 24.3317 22.4164 22.907C21.6678 21.4742 21.2935 19.7718 21.2935 17.7997C21.2935 15.884 21.6719 14.2098 22.4285 12.777C23.1851 11.3362 24.2516 10.2173 25.6281 9.42045C27.0045 8.61553 28.6264 8.21307 30.4938 8.21307C31.8139 8.21307 33.0213 8.41832 34.116 8.82883C35.2107 9.23935 36.1565 9.84706 36.9533 10.652C37.7502 11.4569 38.37 12.451 38.8127 13.6342C39.2554 14.8094 39.4768 16.1577 39.4768 17.679V19.152H23.3582V15.723H33.9832C33.9751 15.0952 33.8262 14.5357 33.5364 14.0447C33.2467 13.5537 32.8482 13.1714 32.3411 12.8977C31.8421 12.616 31.2666 12.4751 30.6146 12.4751C29.9545 12.4751 29.3629 12.6241 28.8397 12.9219C28.3165 13.2116 27.902 13.6101 27.5961 14.1172C27.2902 14.6162 27.1292 15.1837 27.1131 15.8196V19.3089C27.1131 20.0656 27.2621 20.7296 27.5599 21.3011C27.8577 21.8646 28.2803 22.3033 28.8276 22.6172C29.375 22.9311 30.027 23.0881 30.7836 23.0881C31.3068 23.0881 31.7817 23.0156 32.2083 22.8707C32.6349 22.7259 33.0012 22.5125 33.307 22.2308C33.6129 21.9491 33.8423 21.603 33.9952 21.1925L39.4164 21.3494C39.191 22.5649 38.696 23.6233 37.9313 24.5249C37.1747 25.4183 36.1806 26.1146 34.9491 26.6136C33.7175 27.1046 32.2928 27.3501 30.6749 27.3501ZM52.2803 8.45454V12.8011H40.5807V8.45454H52.2803ZM43.0317 4.01136H48.9358V21.1683C48.9358 21.5305 48.9922 21.8243 49.1048 22.0497C49.2256 22.267 49.3986 22.424 49.624 22.5206C49.8494 22.6091 50.119 22.6534 50.433 22.6534C50.6583 22.6534 50.8958 22.6333 51.1453 22.593C51.4029 22.5447 51.5961 22.5045 51.7249 22.4723L52.6183 26.7344C52.3366 26.8149 51.9382 26.9155 51.423 27.0362C50.9159 27.157 50.3082 27.2334 49.5999 27.2656C48.2154 27.33 47.0281 27.169 46.0381 26.7827C45.0561 26.3883 44.3035 25.7765 43.7803 24.9474C43.2651 24.1184 43.0156 23.076 43.0317 21.8203V4.01136ZM60.9153 2.27273V27H55.0111V2.27273H60.9153ZM63.9932 27V8.45454H69.8974V27H63.9932ZM66.9513 6.29332C66.1223 6.29332 65.4099 6.01965 64.8143 5.4723C64.2186 4.9169 63.9208 4.24882 63.9208 3.46804C63.9208 2.69531 64.2186 2.03527 64.8143 1.48793C65.4099 0.932527 66.1223 0.654828 66.9513 0.654828C67.7885 0.654828 68.5008 0.932527 69.0884 1.48793C69.6841 2.03527 69.9819 2.69531 69.9819 3.46804C69.9819 4.24882 69.6841 4.9169 69.0884 5.4723C68.5008 6.01965 67.7885 6.29332 66.9513 6.29332ZM89.1664 14.1172L83.7452 14.2621C83.6889 13.8757 83.536 13.5336 83.2864 13.2358C83.0369 12.9299 82.7109 12.6925 82.3085 12.5234C81.914 12.3464 81.4552 12.2578 80.932 12.2578C80.2478 12.2578 79.6643 12.3946 79.1813 12.6683C78.7064 12.942 78.473 13.3123 78.481 13.7791C78.473 14.1413 78.6179 14.4553 78.9157 14.7209C79.2216 14.9865 79.7649 15.1998 80.5457 15.3608L84.1195 16.0369C85.9709 16.3911 87.3473 16.9787 88.2488 17.7997C89.1584 18.6207 89.6172 19.7074 89.6252 21.0597C89.6172 22.3314 89.2388 23.4382 88.4903 24.38C87.7497 25.3217 86.7355 26.0542 85.4477 26.5774C84.1598 27.0926 82.6868 27.3501 81.0286 27.3501C78.3804 27.3501 76.2916 26.8068 74.7623 25.7202C73.241 24.6255 72.3717 23.1605 72.1543 21.3253L77.986 21.1804C78.1148 21.8565 78.4488 22.3717 78.9881 22.7259C79.5274 23.08 80.2156 23.2571 81.0528 23.2571C81.8094 23.2571 82.4252 23.1162 82.9001 22.8345C83.375 22.5528 83.6165 22.1785 83.6245 21.7116C83.6165 21.2931 83.4313 20.959 83.0691 20.7095C82.7069 20.4519 82.1394 20.2507 81.3667 20.1058L78.1309 19.4901C76.2715 19.152 74.887 18.5282 73.9775 17.6186C73.0679 16.701 72.6172 15.5339 72.6252 14.1172C72.6172 12.8776 72.9472 11.8191 73.6153 10.9418C74.2834 10.0563 75.2332 9.38021 76.4647 8.91335C77.6962 8.4465 79.1491 8.21307 80.8234 8.21307C83.3347 8.21307 85.3148 8.74029 86.7637 9.79474C88.2126 10.8411 89.0135 12.282 89.1664 14.1172ZM102.32 8.45454V12.8011H90.6205V8.45454H102.32ZM93.0715 4.01136H98.9756V21.1683C98.9756 21.5305 99.0319 21.8243 99.1446 22.0497C99.2653 22.267 99.4384 22.424 99.6638 22.5206C99.8892 22.6091 100.159 22.6534 100.473 22.6534C100.698 22.6534 100.936 22.6333 101.185 22.593C101.443 22.5447 101.636 22.5045 101.765 22.4723L102.658 26.7344C102.376 26.8149 101.978 26.9155 101.463 27.0362C100.956 27.157 100.348 27.2334 99.6396 27.2656C98.2552 27.33 97.0679 27.169 96.0778 26.7827C95.0958 26.3883 94.3432 25.7765 93.82 24.9474C93.3049 24.1184 93.0554 23.076 93.0715 21.8203V4.01136Z" fill="white"/>
<path d="M103.964 16.8097V14.9986C105.325 14.9986 106.274 14.7209 106.814 14.1655C107.353 13.602 107.623 12.6723 107.623 11.3764V7.91122C107.623 6.67969 107.759 5.64536 108.033 4.80824C108.315 3.96307 108.741 3.28693 109.313 2.77983C109.884 2.27273 110.609 1.90649 111.486 1.68111C112.364 1.45573 113.398 1.34304 114.589 1.34304V4.20454C113.656 4.20454 112.927 4.34138 112.404 4.61506C111.881 4.88873 111.514 5.31534 111.305 5.89489C111.104 6.46638 111.003 7.19886 111.003 8.09233V12.4872C111.003 13.107 110.911 13.6825 110.726 14.2138C110.54 14.737 110.198 15.1918 109.699 15.5781C109.2 15.9645 108.488 16.2663 107.562 16.4837C106.637 16.701 105.437 16.8097 103.964 16.8097ZM114.589 32.1435C113.398 32.1435 112.364 32.0308 111.486 31.8054C110.609 31.58 109.884 31.2138 109.313 30.7067C108.741 30.1996 108.315 29.5234 108.033 28.6783C107.759 27.8411 107.623 26.8068 107.623 25.5753V22.098C107.623 20.8101 107.353 19.8845 106.814 19.321C106.274 18.7576 105.325 18.4759 103.964 18.4759V16.6768C105.437 16.6768 106.637 16.7855 107.562 17.0028C108.488 17.2121 109.2 17.514 109.699 17.9084C110.198 18.2947 110.54 18.7536 110.726 19.2848C110.911 19.808 111.003 20.3795 111.003 20.9993V25.3942C111.003 26.2796 111.104 27.008 111.305 27.5795C111.514 28.1591 111.881 28.5857 112.404 28.8594C112.927 29.1411 113.656 29.282 114.589 29.282V32.1435ZM103.964 18.4759V14.9986H107.309V18.4759H103.964ZM122.774 27.4105C121.599 27.4105 120.537 27.1932 119.587 26.7585C118.637 26.3158 117.885 25.6759 117.329 24.8388C116.782 24.0017 116.508 22.9754 116.508 21.7599C116.508 20.7135 116.709 19.8523 117.112 19.1761C117.514 18.5 118.058 17.9647 118.742 17.5703C119.426 17.1759 120.191 16.8781 121.036 16.6768C121.881 16.4756 122.742 16.3227 123.62 16.218C124.73 16.0893 125.632 15.9846 126.324 15.9041C127.016 15.8156 127.52 15.6747 127.833 15.4815C128.147 15.2884 128.304 14.9744 128.304 14.5398V14.4553C128.304 13.4008 128.006 12.5838 127.411 12.0043C126.823 11.4247 125.946 11.1349 124.779 11.1349C123.563 11.1349 122.605 11.4046 121.905 11.9439C121.213 12.4751 120.734 13.0668 120.468 13.7188L117.076 12.946C117.478 11.8191 118.066 10.9096 118.838 10.2173C119.619 9.51704 120.517 9.00994 121.531 8.69602C122.545 8.37405 123.612 8.21307 124.73 8.21307C125.471 8.21307 126.256 8.30161 127.085 8.47869C127.922 8.64773 128.703 8.96165 129.427 9.42045C130.16 9.87926 130.759 10.5353 131.226 11.3885C131.693 12.2337 131.926 13.3324 131.926 14.6847V27H128.401V24.4645H128.256C128.023 24.9313 127.672 25.3902 127.206 25.8409C126.739 26.2917 126.139 26.666 125.407 26.9638C124.674 27.2616 123.797 27.4105 122.774 27.4105ZM123.559 24.5128C124.557 24.5128 125.411 24.3156 126.119 23.9212C126.835 23.5268 127.379 23.0116 127.749 22.3757C128.127 21.7318 128.316 21.0436 128.316 20.3111V17.9205C128.188 18.0492 127.938 18.17 127.568 18.2827C127.206 18.3873 126.791 18.4799 126.324 18.5604C125.857 18.6328 125.403 18.7012 124.96 18.7656C124.517 18.822 124.147 18.8703 123.849 18.9105C123.149 18.9991 122.509 19.148 121.929 19.3572C121.358 19.5665 120.899 19.8684 120.553 20.2628C120.215 20.6491 120.046 21.1643 120.046 21.8082C120.046 22.7017 120.376 23.3778 121.036 23.8366C121.696 24.2874 122.537 24.5128 123.559 24.5128ZM145.291 16.6768V18.4759C143.931 18.4759 142.981 18.7576 142.442 19.321C141.903 19.8845 141.633 20.8101 141.633 22.098V25.5753C141.633 26.8068 141.492 27.8411 141.21 28.6783C140.937 29.5234 140.514 30.1996 139.943 30.7067C139.371 31.2138 138.647 31.58 137.769 31.8054C136.892 32.0308 135.858 32.1435 134.666 32.1435V29.282C135.6 29.282 136.329 29.1411 136.852 28.8594C137.375 28.5857 137.737 28.1591 137.938 27.5795C138.148 27.008 138.252 26.2796 138.252 25.3942V20.9993C138.252 20.3795 138.345 19.808 138.53 19.2848C138.715 18.7536 139.057 18.2947 139.556 17.9084C140.055 17.514 140.768 17.2121 141.693 17.0028C142.619 16.7855 143.818 16.6768 145.291 16.6768ZM134.666 1.34304C135.858 1.34304 136.892 1.45573 137.769 1.68111C138.647 1.90649 139.371 2.27273 139.943 2.77983C140.514 3.28693 140.937 3.96307 141.21 4.80824C141.492 5.64536 141.633 6.67969 141.633 7.91122V11.3764C141.633 12.6723 141.903 13.602 142.442 14.1655C142.981 14.7209 143.931 14.9986 145.291 14.9986V16.8097C143.818 16.8097 142.619 16.701 141.693 16.4837C140.768 16.2663 140.055 15.9645 139.556 15.5781C139.057 15.1918 138.715 14.737 138.53 14.2138C138.345 13.6825 138.252 13.107 138.252 12.4872V8.09233C138.252 7.19886 138.148 6.46638 137.938 5.89489C137.737 5.31534 137.375 4.88873 136.852 4.61506C136.329 4.34138 135.6 4.20454 134.666 4.20454V1.34304ZM145.291 14.9986V18.4759H141.947V14.9986H145.291Z" fill="#1BE885"/>
</svg>
